<?xml version="1.0" standalone="no"?>
<!DOCTYPE svg PUBLIC "-//W3C//DTD SVG 20010904//EN"
 "http://www.w3.org/TR/2001/REC-SVG-20010904/DTD/svg10.dtd">
<svg version="1.0" xmlns="http://www.w3.org/2000/svg"
 width="200.000000pt" height="200.000000pt" viewBox="0 0 200.000000 200.000000"
 preserveAspectRatio="xMidYMid meet">

<g transform="translate(0.000000,200.000000) scale(0.100000,-0.100000)"
fill="#ffffff" stroke="none">
<path d="M1447 1512 c-115 -116 -132 -143 -105 -170 25 -25 54 -11 123 58 l70
71 5 -402 c5 -369 6 -403 23 -413 12 -8 22 -8 35 0 16 10 17 44 22 413 l5 402
70 -71 c70 -71 101 -84 125 -56 6 8 10 24 8 34 -4 28 -223 252 -245 252 -10 0
-71 -53 -136 -118z"/>
<path d="M392 1348 c-9 -9 -12 -114 -12 -412 l0 -400 -73 72 c-71 71 -100 85
-125 60 -27 -27 -10 -54 105 -170 65 -65 125 -118 133 -118 23 0 250 233 250
256 0 26 -19 44 -44 44 -12 0 -51 -30 -93 -72 l-73 -72 0 400 c0 413 -1 424
-40 424 -9 0 -21 -5 -28 -12z"/>
<path d="M612 1248 c-7 -7 -12 -24 -12 -38 0 -14 5 -31 12 -38 17 -17 759 -17
776 0 7 7 12 24 12 38 0 14 -5 31 -12 38 -17 17 -759 17 -776 0z"/>
<path d="M612 1048 c-7 -7 -12 -24 -12 -38 0 -14 5 -31 12 -38 17 -17 759 -17
776 0 7 7 12 24 12 38 0 14 -5 31 -12 38 -17 17 -759 17 -776 0z"/>
<path d="M612 848 c-7 -7 -12 -24 -12 -38 0 -14 5 -31 12 -38 17 -17 759 -17
776 0 7 7 12 24 12 38 0 14 -5 31 -12 38 -17 17 -759 17 -776 0z"/>
</g>
</svg>
